<svg width="75" height="16" viewBox="0 0 75 16" fill="none" xmlns="http://www.w3.org/2000/svg">
<g clip-path="url(#clip0_12_2798)">
<path d="M14.2618 15.5436C14.2618 15.5436 14.216 15.5436 14.1854 15.5436C12.6415 15.3908 11.411 14.1602 11.2658 12.6164C11.2581 12.5094 11.2505 12.4024 11.2505 12.303V0.800415H13.9943V11.9973C13.9943 12.4406 14.3535 12.7922 14.7892 12.7922H22.134C22.5697 12.7922 22.9289 12.4329 22.9289 11.9973V0.800415H25.6727V12.2954C25.6727 12.4024 25.6727 12.5094 25.6574 12.6087C25.5122 14.1526 24.2817 15.3831 22.7378 15.536C22.7072 15.536 22.6843 15.536 22.6537 15.536H14.2465L14.2618 15.5436Z" fill="#6C38FF"/>
<path d="M48.3187 15.6811C48.3187 15.6811 48.2728 15.6811 48.2423 15.6811C46.6678 15.5283 45.4144 14.2748 45.2615 12.7004C45.2539 12.5934 45.2462 12.4864 45.2462 12.3794V3.63588C45.2462 3.52123 45.2462 3.41423 45.2615 3.30723C45.4144 1.74043 46.6678 0.486992 48.2346 0.334134C48.3416 0.318848 48.4486 0.318848 48.5633 0.318848H55.1668C55.1668 0.318848 55.2203 0.318848 55.2432 0.318848C57.1845 0.357062 58.8812 1.54172 59.5767 3.35309C59.7907 3.89574 59.8977 4.46896 59.8977 5.05746C59.8977 7.62548 57.8112 9.75022 55.2508 9.79607C55.2203 9.79607 55.1973 9.79607 55.1668 9.79607H50.1454V6.99112H55.4266V6.97584C56.382 6.84591 57.1004 6.03576 57.1004 5.05746C57.1004 4.07917 56.3743 3.26137 55.4266 3.13909V3.1238H48.8537C48.4104 3.1238 48.0436 3.48302 48.0436 3.92631V12.0737C48.0436 12.517 48.4028 12.8838 48.8537 12.8838H56.2444V15.6811H48.3111H48.3187Z" fill="#6C38FF"/>
<path d="M62.5496 15.5435V12.7997H70.5517C71.4918 12.7997 72.2638 12.0277 72.2638 11.0877C72.2638 10.1476 71.4995 9.37564 70.5517 9.37564H66.5239C66.0118 9.37564 65.515 9.29156 65.0412 9.12342C63.7801 8.68013 62.7636 7.66362 62.3203 6.41018C62.1522 5.93632 62.0681 5.43189 62.0681 4.91981C62.0681 4.40774 62.1522 3.91095 62.3203 3.43709C62.7636 2.176 63.7801 1.1595 65.0412 0.716206C65.515 0.548061 66.0195 0.463989 66.5239 0.463989H73.586V3.2078H66.5239C65.5838 3.2078 64.8119 3.97209 64.8119 4.91981C64.8119 5.86754 65.5762 6.63183 66.5239 6.63183H70.5517C71.0638 6.63183 71.5606 6.7159 72.0345 6.88404C73.2955 7.32733 74.3121 8.34384 74.7553 9.59728C74.8929 9.97943 74.977 10.3845 74.9999 10.7972V11.3781C74.977 11.7755 74.8929 12.1806 74.7553 12.5704C74.3121 13.8238 73.2955 14.8403 72.0345 15.2836C71.5606 15.4518 71.0562 15.5358 70.5517 15.5358H62.5496V15.5435Z" fill="#6C38FF"/>
<path d="M28.5311 15.5434C28.5311 15.5434 28.5311 3.26126 28.5311 3.20776H31.2749V15.5434H28.5311Z" fill="#6C38FF"/>
<path d="M43.0525 3.39123C42.8996 1.855 41.6768 0.624491 40.1329 0.479275C40.0336 0.471632 39.9189 0.463989 39.8119 0.463989H34.0186C32.5053 0.463989 31.2748 1.6945 31.2748 3.2078H40.324V15.5435H43.0678V3.71223C43.0678 3.59759 43.0678 3.49059 43.0525 3.38358V3.39123Z" fill="#6C38FF"/>
<path d="M2.74376 12.7998V0.624634H-4.57764e-05V12.2954C-4.57764e-05 12.4024 -4.57764e-05 12.5094 0.0152401 12.6087C0.160456 14.1526 1.39097 15.3831 2.93484 15.536C2.95777 15.536 2.98834 15.536 3.01127 15.536L9.07975 15.5207V12.7922H2.74376V12.7998Z" fill="#6C38FF"/>
</g>
<defs>
<clipPath id="clip0_12_2798">
<rect width="75" height="15.3623" fill="white" transform="translate(0 0.318848)"/>
</clipPath>
</defs>
</svg>
