<svg width="25" height="25" viewBox="0 0 25 25" fill="none" xmlns="http://www.w3.org/2000/svg">
<path d="M15.03 10.2115L9.97 15.2715C9.32 14.6215 8.92 13.7315 8.92 12.7415C8.92 10.7615 10.52 9.16151 12.5 9.16151C13.49 9.16151 14.38 9.56151 15.03 10.2115Z" stroke="#8A8A8E" stroke-width="1.5" stroke-linecap="round" stroke-linejoin="round"/>
<path d="M18.32 6.51152C16.57 5.19152 14.57 4.47152 12.5 4.47152C8.97 4.47152 5.68 6.55152 3.39 10.1515C2.49 11.5615 2.49 13.9315 3.39 15.3415C4.18 16.5815 5.1 17.6515 6.1 18.5115" stroke="#8A8A8E" stroke-width="1.5" stroke-linecap="round" stroke-linejoin="round"/>
<path d="M8.92 20.2715C10.06 20.7515 11.27 21.0115 12.5 21.0115C16.03 21.0115 19.32 18.9315 21.61 15.3315C22.51 13.9215 22.51 11.5515 21.61 10.1415C21.28 9.62152 20.92 9.13152 20.55 8.67152" stroke="#8A8A8E" stroke-width="1.5" stroke-linecap="round" stroke-linejoin="round"/>
<path d="M16.01 13.4415C15.75 14.8515 14.6 16.0015 13.19 16.2615" stroke="#8A8A8E" stroke-width="1.5" stroke-linecap="round" stroke-linejoin="round"/>
<path d="M9.97 15.2715L2.5 22.7415" stroke="#8A8A8E" stroke-width="1.5" stroke-linecap="round" stroke-linejoin="round"/>
<path d="M22.5 2.74152L15.03 10.2115" stroke="#8A8A8E" stroke-width="1.5" stroke-linecap="round" stroke-linejoin="round"/>
</svg>
