<svg width="24" height="24" viewBox="0 0 24 24" fill="none" xmlns="http://www.w3.org/2000/svg">
<path d="M17 18.43H13L8.54999 21.39C7.88999 21.83 7 21.36 7 20.56V18.43C4 18.43 2 16.43 2 13.43V7.42993C2 4.42993 4 2.42993 7 2.42993H17C20 2.42993 22 4.42993 22 7.42993V13.43C22 16.43 20 18.43 17 18.43Z" stroke="#8A8A8E" stroke-width="1.5" stroke-miterlimit="10" stroke-linecap="round" stroke-linejoin="round"/>
<path opacity="0.4" d="M12 11.36V11.15C12 10.47 12.42 10.11 12.84 9.82001C13.25 9.54001 13.66 9.18002 13.66 8.52002C13.66 7.60002 12.92 6.85999 12 6.85999C11.08 6.85999 10.34 7.60002 10.34 8.52002" stroke="#8A8A8E" stroke-width="1.5" stroke-linecap="round" stroke-linejoin="round"/>
<path opacity="0.4" d="M11.9955 13.75H12.0045" stroke="#1A1A1A" stroke-width="1.5" stroke-linecap="round" stroke-linejoin="round"/>
</svg>
